# xmcd
#
# Track frame offsets: 
#        150
#        17275
#        44290
#        74765
#        90233
#        115405
#        135415
#        149108
#        177550
#        196283
#        221760
#        241965
#
# Disc length: 3490 seconds
#
# Revision: 1
# Processed by: cddbd v1.5.2PL0 Copyright (c) Steve Scherf et al.
# Submitted via: ExactAudioCopy v0.95b3
#
DISCID=b10da00c
DTITLE=Billie Holiday - Holiday For Lovers
DYEAR=2002
DGENRE=Jazz
TTITLE0=Moonlight In Vermont
TTITLE1=I Didn't Know What Time It Was
TTITLE2=Embraceable You
TTITLE3=I Wished On The Moon
TTITLE4=Gee, Baby, Ain't I Good To You?
TTITLE5=Speak Low
TTITLE6=April In Paris
TTITLE7=Body And Soul
TTITLE8=They Can't Take That Away From Me
TTITLE9=One For My Baby (And One More For The Road)
TTITLE10=Stars Fell On Alabama
TTITLE11=We'll Be Together Again
EXTD=YEAR: 2002
EXTT0=
EXTT1=
EXTT2=
EXTT3=
EXTT4=
EXTT5=
EXTT6=
EXTT7=
EXTT8=
EXTT9=
EXTT10=
EXTT11=
PLAYORDER=
